<svg width="96" height="96" viewBox="0 0 96 96" fill="none" xmlns="http://www.w3.org/2000/svg">
  <rect width="96" height="96" rx="24" fill="#111312"/>
  <path
    d="M43.8 14.7C41.4 12.1 36.9 14.3 38.1 17.6C39.8 22.2 43.9 25.1 45.8 29.5C49.7 38.2 43.8 45.4 36.8 51.2C31.8 55.4 28.3 60 30.5 65.6C33.3 72.6 40.8 72.8 47.6 69.1C51.1 67.1 55.5 64.9 59.1 67.5L64.2 71.2C67.5 73.6 71.2 69.1 68.6 66L52.2 46.3C49.7 43.4 50.2 38.9 53.3 36.7L61.5 30.8C65.4 28 66.5 22.5 63.8 18.5L55.8 6.9C53.5 3.5 48.2 6 49.3 10C52.7 22 47.7 30.2 40.5 37.3"
    fill="url(#paint0_linear)"
    filter="url(#softGlow)"
  />
  <path
    d="M35.6 62.4C34.1 59.2 35.6 55.9 38.7 54.4C43.3 52.3 49.7 52.1 54.7 55.1L65.8 61.8C67.3 62.7 68.9 60.6 67.7 59.4L51.5 43.7C48.6 40.9 43.9 40.8 40.8 43.5L32.8 50.4C27.7 54.8 27.9 62.9 33.2 67.1L40.7 73C43.6 75.3 47.4 71.6 45.1 68.7L35.6 62.4Z"
    fill="url(#paint1_linear)"
    filter="url(#softGlow)"
  />
  <defs>
    <linearGradient id="paint0_linear" x1="38" y1="7" x2="65" y2="72" gradientUnits="userSpaceOnUse">
      <stop stop-color="#B8FFF4"/>
      <stop offset="0.48" stop-color="#47D8C8"/>
      <stop offset="1" stop-color="#0F8F86"/>
    </linearGradient>
    <linearGradient id="paint1_linear" x1="31" y1="50" x2="51" y2="75" gradientUnits="userSpaceOnUse">
      <stop stop-color="#D7FFF8"/>
      <stop offset="0.55" stop-color="#5EE2D4"/>
      <stop offset="1" stop-color="#168E87"/>
    </linearGradient>
    <filter id="softGlow" x="18" y="-6" width="66" height="92" filterUnits="userSpaceOnUse" color-interpolation-filters="sRGB">
      <feDropShadow dx="0" dy="0" stdDeviation="5" flood-color="#47D8C8" flood-opacity="0.22"/>
      <feDropShadow dx="0" dy="8" stdDeviation="10" flood-color="#000000" flood-opacity="0.28"/>
    </filter>
  </defs>
</svg>
